<svg width="18" height="18" viewBox="0 0 18 18" fill="none" xmlns="http://www.w3.org/2000/svg">
<path d="M8.11111 11.6667L5.44444 9M5.44444 9L8.11111 6.33333M5.44444 9H12.5556M1 9C1 7.94943 1.20693 6.90914 1.60896 5.93853C2.011 4.96793 2.60028 4.08601 3.34315 3.34315C4.08601 2.60028 4.96793 2.011 5.93853 1.60896C6.90914 1.20693 7.94943 1 9 1C10.0506 1 11.0909 1.20693 12.0615 1.60896C13.0321 2.011 13.914 2.60028 14.6569 3.34315C15.3997 4.08601 15.989 4.96793 16.391 5.93853C16.7931 6.90914 17 7.94943 17 9C17 11.1217 16.1571 13.1566 14.6569 14.6569C13.1566 16.1571 11.1217 17 9 17C6.87827 17 4.84344 16.1571 3.34315 14.6569C1.84285 13.1566 1 11.1217 1 9Z" stroke="#F1C968" stroke-width="2" stroke-linecap="round" stroke-linejoin="round"/>
</svg>
