<svg xmlns="http://www.w3.org/2000/svg" viewBox="0 0 24 24">
<g>
<path stroke-width="2" stroke-linecap="round" stroke-linejoin="round" fill="#F0F0ED" stroke="#2E2A20" d="M12 21a2 2 0 0 1-1.41-.59l-.83-.82A2 2 0 0 0 8.34 19H4a1 1 0 0 1-1-1V4a1 1 0 0 1 1-1h4a5 5 0 0 1 4 2v16z"/>
<path stroke-width="2" stroke-linecap="round" stroke-linejoin="round" fill="#F0F0ED" stroke="#2E2A20" d="M12 21V5a5 5 0 0 1 4-2h4a1 1 0 0 1 1 1v14a1 1 0 0 1-1 1h-4.34a2 2 0 0 0-1.42.59l-.83.82A2 2 0 0 1 12 21z"/>
</g>
</svg>