<svg width="6" height="21" viewBox="0 0 6 21" fill="none" xmlns="http://www.w3.org/2000/svg">
<path d="M2.97341 5.50007C1.59267 5.50742 0.467488 4.3941 0.460144 3.0134C0.452801 1.63271 1.56608 0.507487 2.94681 0.500143C4.32751 0.4928 5.45273 1.60612 5.46007 2.98681C5.46742 4.3675 4.3541 5.49273 2.97341 5.50007Z" fill="#2E2A20"/>
<path d="M3.0132 13C1.63247 13.0073 0.507283 11.894 0.499939 10.5133C0.492596 9.13262 1.60588 8.0074 2.98661 8.00005C4.3673 7.99271 5.49253 9.10603 5.49987 10.4867C5.50721 11.8675 4.39389 12.9926 3.0132 13Z" fill="#2E2A20"/>
<path d="M0.539978 18.0132C0.547322 19.394 1.67251 20.5072 3.05324 20.4999C4.43393 20.4925 5.54725 19.3674 5.53991 17.9866C5.53256 16.6059 4.40734 15.4926 3.02665 15.5C1.64592 15.5073 0.532635 16.6325 0.539978 18.0132Z" fill="#2E2A20"/>
</svg>
