<svg width="25" height="25" viewBox="0 0 25 25" fill="none" xmlns="http://www.w3.org/2000/svg">
<path d="M18.1568 0.457672C18.9788 0.457672 19.753 0.615378 20.4794 0.93079C21.2058 1.2462 21.8414 1.67631 22.3862 2.22111C22.931 2.76592 23.3611 3.40152 23.6765 4.12792C23.992 4.85433 24.1497 5.62852 24.1497 6.4505V18.4362C24.1497 19.2581 23.992 20.0371 23.6765 20.7731C23.3611 21.509 22.931 22.1494 22.3862 22.6942C21.8414 23.239 21.2058 23.6691 20.4794 23.9846C19.753 24.3 18.9788 24.4577 18.1568 24.4577H6.14249C5.32051 24.4577 4.54631 24.3 3.81991 23.9846C3.09351 23.6691 2.4579 23.239 1.9131 22.6942C1.3683 22.1494 0.938189 21.509 0.622776 20.7731C0.307364 20.0371 0.149658 19.2581 0.149658 18.4362V6.4505C0.149658 5.62852 0.307364 4.85433 0.622776 4.12792C0.938189 3.40152 1.3683 2.76592 1.9131 2.22111C2.4579 1.67631 3.09351 1.2462 3.81991 0.93079C4.54631 0.615378 5.32051 0.457672 6.14249 0.457672H18.1568ZM16.6371 5.70498H14.1138C13.6168 5.70498 13.158 5.79101 12.7375 5.96305C12.3169 6.13509 11.9537 6.3597 11.6479 6.63688C11.342 6.91406 11.0983 7.23426 10.9167 7.59746C10.7351 7.96066 10.6443 8.32386 10.6443 8.68706V10.2068H8.40772V13.1889H10.6443V19.2104H13.655V13.1889H15.8916V10.2068H13.655V9.46126C13.655 9.21275 13.7458 9.02159 13.9274 8.88778C14.109 8.75397 14.2667 8.68706 14.4006 8.68706H16.6371V5.70498Z" fill="#2E2A20"/>
</svg>
