<svg width="24" height="24" viewBox="0 0 24 24" fill="none" xmlns="http://www.w3.org/2000/svg">
<path d="M2.40356 7.06079L12 11.8584L21.5964 7.06079C21.5608 6.44932 21.2929 5.87457 20.8473 5.45426C20.4018 5.03395 19.8125 4.79988 19.2 4.79999H4.79996C4.18747 4.79988 3.5981 5.03395 3.15258 5.45426C2.70705 5.87457 2.43909 6.44932 2.40356 7.06079Z" fill="#2E2A20"/>
<path d="M21.5999 9.74161L11.9999 14.5416L2.3999 9.74161V16.8C2.3999 17.4365 2.65276 18.047 3.10285 18.4971C3.55293 18.9472 4.16338 19.2 4.7999 19.2H19.1999C19.8364 19.2 20.4469 18.9472 20.897 18.4971C21.347 18.047 21.5999 17.4365 21.5999 16.8V9.74161Z" fill="#2E2A20"/>
</svg>
