<svg width="24" height="24" viewBox="0 0 24 24" fill="none" xmlns="http://www.w3.org/2000/svg">
<path fill-rule="evenodd" clip-rule="evenodd" d="M12 24C18.6275 24 24 18.6275 24 12C24 5.37258 18.6275 0 12 0C5.37258 0 0 5.37258 0 12C0 18.6275 5.37258 24 12 24ZM13.5 7.5C13.5 6.67158 12.8285 6 12 6C11.1716 6 10.5 6.67158 10.5 7.5V10.5H7.5C6.67158 10.5 6 11.1716 6 12C6 12.8285 6.67158 13.5 7.5 13.5H10.5V16.5C10.5 17.3284 11.1716 18 12 18C12.8285 18 13.5 17.3284 13.5 16.5V13.5H16.5C17.3284 13.5 18 12.8285 18 12C18 11.1716 17.3284 10.5 16.5 10.5H13.5V7.5Z" fill="#2E2A20"/>
</svg>
