<svg width="25" height="25" viewBox="0 0 25 25" fill="none" xmlns="http://www.w3.org/2000/svg">
<path d="M18.2506 0.703964C19.0726 0.703964 19.8468 0.86167 20.5732 1.17708C21.2996 1.49249 21.9352 1.9226 22.48 2.46741C23.0248 3.01221 23.4549 3.64781 23.7703 4.37422C24.0857 5.10062 24.2434 5.87481 24.2434 6.6968V18.6825C24.2434 19.5044 24.0857 20.2834 23.7703 21.0194C23.4549 21.7553 23.0248 22.3957 22.48 22.9405C21.9352 23.4853 21.2996 23.9154 20.5732 24.2308C19.8468 24.5463 19.0726 24.704 18.2506 24.704H6.23624C5.41426 24.704 4.64006 24.5463 3.91366 24.2308C3.18726 23.9154 2.55165 23.4853 2.00685 22.9405C1.46205 22.3957 1.03194 21.7553 0.716526 21.0194C0.401114 20.2834 0.243408 19.5044 0.243408 18.6825V6.6968C0.243408 5.87481 0.401114 5.10062 0.716526 4.37422C1.03194 3.64781 1.46205 3.01221 2.00685 2.46741C2.55165 1.9226 3.18726 1.49249 3.91366 1.17708C4.64006 0.86167 5.41426 0.703964 6.23624 0.703964H18.2506ZM17.9638 9.73622C18.5182 9.3539 19.0057 8.85689 19.4262 8.24518C19.1586 8.35988 18.8862 8.45546 18.609 8.53192C18.3318 8.60838 18.0499 8.66573 17.7631 8.70396C18.3939 8.30253 18.8145 7.75773 19.0248 7.06956C18.4513 7.43276 17.8396 7.67171 17.1896 7.7864C16.6162 7.17469 15.8993 6.86884 15.0391 6.86884C14.6377 6.86884 14.2601 6.9453 13.9065 7.09823C13.5528 7.25116 13.247 7.46143 12.9889 7.72905C12.7309 7.99668 12.5254 8.30731 12.3724 8.66095C12.2195 9.0146 12.143 9.39214 12.143 9.79357C12.143 9.90827 12.1478 10.0182 12.1574 10.1233C12.1669 10.2285 12.1813 10.3384 12.2004 10.4531C10.9961 10.3957 9.87782 10.0946 8.84556 9.54984C7.8133 9.00504 6.93397 8.29297 6.20757 7.41364C5.93994 7.85331 5.80613 8.34076 5.80613 8.87601C5.80613 9.37302 5.92561 9.8318 6.16456 10.2524C6.4035 10.6729 6.71414 11.017 7.09645 11.2846C6.86706 11.2846 6.64245 11.2512 6.42262 11.1843C6.20279 11.1173 5.98773 11.0361 5.77746 10.9405V10.9692C5.77746 11.6765 6.00207 12.293 6.45129 12.8187C6.90052 13.3443 7.45966 13.6837 8.12871 13.8366C7.86109 13.8939 7.60303 13.9226 7.35452 13.9226H7.08212L6.80972 13.8653C7.00088 14.4578 7.34018 14.9405 7.82764 15.3133C8.31509 15.686 8.88379 15.882 9.53373 15.9011C9.03672 16.2834 8.47758 16.5893 7.85631 16.8187C7.23505 17.0481 6.58988 17.1627 5.92083 17.1627C5.78702 17.1627 5.66276 17.158 5.54807 17.1484C5.43337 17.1389 5.31868 17.1245 5.20398 17.1054C5.85392 17.5259 6.55643 17.8509 7.31151 18.0803C8.06659 18.3097 8.85512 18.4244 9.6771 18.4244C11.0152 18.4244 12.2004 18.1711 13.2327 17.6645C14.2649 17.158 15.1299 16.508 15.8276 15.7147C16.5254 14.9214 17.0558 14.0325 17.419 13.0481C17.7822 12.0636 17.9638 11.0839 17.9638 10.109V9.73622Z" fill="#2E2A20"/>
</svg>
